<svg xmlns="http://www.w3.org/2000/svg" viewBox="0 0 750 500"><g id="freepik--Floor--inject-92"><path d="M727.35,466.84c0,.15-157.77.26-352.33.26S22.65,467,22.65,466.84s157.73-.26,352.37-.26S727.35,466.7,727.35,466.84Z" style="fill:#263238"></path></g><g id="freepik--Books--inject-92"><rect x="265.53" y="86.9" width="198.28" height="66.38" style="fill:#263238"></rect><path d="M358.4,121.68S180.15,96.77,175.89,96,370.33,55.56,370.33,55.56L564.88,99.19Z" style="fill:#263238"></path><path d="M463.82,108.9l-.47-.25c-.31-.16-.76-.42-1.37-.73-1.2-.63-3-1.55-5.35-2.61a167.18,167.18,0,0,0-20.54-7.57,240.44,240.44,0,0,0-31.69-7.09,303.85,303.85,0,0,0-39.6-3.52,236.2,236.2,0,0,0-39.66,2.42,224.76,224.76,0,0,0-31.71,7,191.86,191.86,0,0,0-20.6,7.41l-3.15,1.39-2.28,1.08-1.39.68c-.31.16-.48.23-.48.23L266,107l1.37-.73,2.26-1.12,3.13-1.44a179.67,179.67,0,0,1,20.58-7.57,220.62,220.62,0,0,1,31.74-7.11,233.81,233.81,0,0,1,39.74-2.46,301.08,301.08,0,0,1,39.67,3.56,234.31,234.31,0,0,1,31.71,7.22,157.69,157.69,0,0,1,20.52,7.74c2.36,1.08,4.13,2,5.32,2.69.6.33,1,.61,1.35.78Z" style="fill:#455a64"></path><path d="M486.28,91.91c-.78-5.17-1.41-8.48-3.5-11.73a8.59,8.59,0,0,0-11.87-2.06l5,1.19c3.82,2.08,4.81,7,5.17,11.39a131.62,131.62,0,0,1-.8,28.54c1.69.16,4.12-.33,5.8-.17C487,110,487.66,101.09,486.28,91.91Z" style="fill:#FFC727"></path><circle cx="483.62" cy="117.13" r="6.02" style="fill:#FFC727"></circle><path d="M496.6,144.61c-.11-4.9-.23-9.86-1.5-14.6s-3.84-9.31-7.92-12l-5.76.2c-3.38.78-5.67,4.06-6.52,7.42s-.58,6.88-.68,10.35-.67,7.12-2.87,9.79c1.91.51,3.66,1.49,5.53,2.13a7.31,7.31,0,0,0,5.77-.07c2.14-1.16,3-3.74,3.71-6.08a12.15,12.15,0,0,1,.57,6.88c1.6-.2,3.2.34,4.81.52s3.5-.13,4.35-1.51A5.45,5.45,0,0,0,496.6,144.61Z" style="fill:#FFC727"></path><rect x="222.94" y="152.6" width="294.82" height="26.79" style="fill:#f5f5f5"></rect><rect x="435.49" y="152.6" width="82.27" height="26.79" style="opacity:0.30000000000000004"></rect><path d="M517.76,157.26c0,.15-66,.26-147.4.26s-147.42-.11-147.42-.26,66-.26,147.42-.26S517.76,157.12,517.76,157.26Z" style="fill:#263238"></path><path d="M517.76,161.82c0,.15-66,.26-147.4.26s-147.42-.11-147.42-.26,66-.26,147.42-.26S517.76,161.68,517.76,161.82Z" style="fill:#263238"></path><path d="M517.76,166.39c0,.14-66,.26-147.4.26s-147.42-.12-147.42-.26,66-.26,147.42-.26S517.76,166.24,517.76,166.39Z" style="fill:#263238"></path><path d="M517.76,171c0,.14-66,.26-147.4.26s-147.42-.12-147.42-.26,66-.26,147.42-.26S517.76,170.8,517.76,171Z" style="fill:#263238"></path><path d="M517.76,175.41c0,.14-66,.26-147.4.26s-147.42-.12-147.42-.26,66-.26,147.42-.26S517.76,175.26,517.76,175.41Z" style="fill:#263238"></path><rect x="173.37" y="221.86" width="382.2" height="47.73" style="fill:#455a64"></rect><path d="M471.18,260.18a3.39,3.39,0,0,1,0-.55c0-.41,0-.91,0-1.53,0-1.39-.05-3.29-.08-5.65,0-4.87-.1-11.63-.16-19.57l.32.32-18.1,0c-.08.07.66-.66.35-.34h0v3.81c0,1.26,0,2.5,0,3.73,0,2.46,0,4.84,0,7.14,0,4.59,0,8.84-.05,12.61l-.28-.28,13.1.15,3.67.07a12.36,12.36,0,0,1,1.33.06,8.87,8.87,0,0,1-1.22.06l-3.6.07-13.28.14h-.27v-.28c0-3.77,0-8-.06-12.61,0-2.3,0-4.68,0-7.14V236.7c0-.63,0-1.26,0-1.9v-1.91h0c-.3.3.43-.43.35-.36l18.1,0h.32v.32c-.07,8-.12,14.86-.16,19.78,0,2.33-.06,4.21-.09,5.58,0,.59,0,1.07,0,1.46A3.05,3.05,0,0,1,471.18,260.18Z" style="fill:#263238"></path><rect x="496.61" y="229.33" width="58.95" height="32.28" style="fill:#fff"></rect><rect x="488.85" y="221.86" width="66.71" height="47.73" style="opacity:0.30000000000000004"></rect><path d="M488.56,269.31c-.19,0-.35-10.54-.35-23.53s.16-23.53.35-23.53.35,10.53.35,23.53S488.75,269.31,488.56,269.31Z" style="fill:#263238"></path><path d="M556,237c0,.19-13.4.34-29.92.34s-29.92-.15-29.92-.34,13.39-.35,29.92-.35S556,236.78,556,237Z" style="fill:#263238"></path><path d="M556,245.47c0,.19-13.4.34-29.92.34s-29.92-.15-29.92-.34,13.39-.35,29.92-.35S556,245.27,556,245.47Z" style="fill:#263238"></path><path d="M556,254.08c0,.19-13.4.35-29.92.35s-29.92-.16-29.92-.35,13.39-.34,29.92-.34S556,253.89,556,254.08Z" style="fill:#263238"></path><rect x="177.58" y="269.97" width="382.2" height="23.55" style="fill:#ff9a6c"></rect><rect x="474.34" y="272.92" width="85.44" height="17.83" style="fill:#e0e0e0"></rect><rect x="469.51" y="269.97" width="90.27" height="23.55" style="opacity:0.30000000000000004"></rect><path d="M469.51,293.52c-.2,0-.34-5.07-.32-11.33s.19-11.34.38-11.34.33,5.08.31,11.34S469.7,293.52,469.51,293.52Z" style="fill:#263238"></path><rect x="205.06" y="279.05" width="230.18" height="5.63" style="fill:#e0e0e0"></rect><path d="M460.21,293.34c0,.19-63.34.34-141.45.34s-141.46-.15-141.46-.34,63.32-.35,141.46-.35S460.21,293.14,460.21,293.34Z" style="fill:#263238"></path><path d="M470.45,293.45c0,.19-63.34.34-141.45.34s-141.46-.15-141.46-.34,63.32-.35,141.46-.35S470.45,293.26,470.45,293.45Z" style="fill:#263238"></path><path d="M559.78,269.8c0,.19-83.34.34-186.11.34s-186.13-.15-186.13-.34,83.31-.35,186.13-.35S559.78,269.6,559.78,269.8Z" style="fill:#263238"></path><rect x="147.94" y="419.43" width="382.2" height="23.55" style="fill:#e0e0e0"></rect><rect x="444.69" y="422.38" width="85.44" height="17.83" style="fill:#e0e0e0"></rect><rect x="439.86" y="419.43" width="90.27" height="23.55" style="opacity:0.30000000000000004"></rect><path d="M439.86,443c-.19,0-.33-5.08-.31-11.33s.18-11.34.38-11.34.33,5.08.31,11.34S440.06,443,439.86,443Z" style="fill:#263238"></path><rect x="175.42" y="428.5" width="230.18" height="5.63" style="fill:#fff"></rect><path d="M430.57,442.79c0,.2-63.34.35-141.45.35s-141.46-.15-141.46-.35,63.32-.34,141.46-.34S430.57,442.6,430.57,442.79Z" style="fill:#263238"></path><path d="M440.81,442.9c0,.2-63.34.35-141.45.35s-141.47-.15-141.47-.35,63.33-.34,141.47-.34S440.81,442.71,440.81,442.9Z" style="fill:#263238"></path><path d="M530.13,419.25c0,.2-83.33.35-186.11.35s-186.13-.15-186.13-.35,83.32-.34,186.13-.34S530.13,419.06,530.13,419.25Z" style="fill:#263238"></path><rect x="109.96" y="443.08" width="541.24" height="23.55" style="fill:#455a64"></rect><rect x="535.58" y="446.03" width="115.62" height="17.83" style="fill:#e0e0e0"></rect><rect x="529.04" y="443.08" width="122.16" height="23.55" style="opacity:0.30000000000000004"></rect><path d="M529,466.63c-.26,0-.45-5.08-.42-11.33s.25-11.34.51-11.34.45,5.08.42,11.34S529.3,466.63,529,466.63Z" style="fill:#263238"></path><rect x="171.19" y="452.15" width="311.49" height="5.63" style="fill:#e0e0e0"></rect><path d="M530.32,466.55c0,.2-85.71.35-191.41.35s-191.44-.15-191.44-.35,85.69-.34,191.44-.34S530.32,466.36,530.32,466.55Z" style="fill:#263238"></path><path d="M651.2,442.9c0,.2-112.77.35-251.85.35s-251.88-.15-251.88-.35,112.75-.34,251.88-.34S651.2,442.71,651.2,442.9Z" style="fill:#263238"></path><rect x="420.44" y="300.2" width="126.22" height="46.29" transform="translate(967.1 646.7) rotate(180)" style="fill:#ebebeb"></rect><rect x="144.33" y="292.25" width="402.33" height="9.7" transform="translate(691 594.2) rotate(180)" style="fill:#455a64"></rect><rect x="144.33" y="344.43" width="402.33" height="9.7" transform="translate(691 698.55) rotate(180)" style="fill:#455a64"></rect><polygon points="424.48 294.56 423.85 352.28 144.33 352.28 144.33 294.56 424.48 294.56" style="fill:#455a64"></polygon><ellipse cx="354.99" cy="325.98" rx="13.3" ry="14.36" style="fill:#263238"></ellipse><path d="M339.62,326c0-9.06,6.9-16.42,15.37-16.42s15.36,7.36,15.36,16.42S363.46,342.4,355,342.4,339.62,335,339.62,326Zm4.13,0c0,6.78,5,12.3,11.24,12.3s11.23-5.52,11.23-12.3-5-12.3-11.23-12.3S343.75,319.2,343.75,326Z" style="fill:#e0e0e0"></path><rect x="187.42" y="309.41" width="110.88" height="30.89" transform="translate(485.73 649.71) rotate(180)" style="fill:#fff"></rect><path d="M281,337.16c.6,0,1.08-5.51,1.08-12.31s-.48-12.3-1.08-12.3-1.07,5.51-1.07,12.3S280.44,337.16,281,337.16Z" style="fill:#e0e0e0"></path><path d="M266.37,337.16c.6,0,1.08-5.51,1.08-12.31s-.48-12.3-1.08-12.3-1.07,5.51-1.07,12.3S265.78,337.16,266.37,337.16Z" style="fill:#e0e0e0"></path><path d="M251.71,337.16c.59,0,1.08-5.51,1.08-12.31s-.49-12.3-1.08-12.3-1.07,5.51-1.07,12.3S251.12,337.16,251.71,337.16Z" style="fill:#e0e0e0"></path><path d="M237.05,337.16c.59,0,1.07-5.51,1.07-12.31s-.48-12.3-1.07-12.3-1.08,5.51-1.08,12.3S236.46,337.16,237.05,337.16Z" style="fill:#e0e0e0"></path><path d="M222.39,337.16c.59,0,1.07-5.51,1.07-12.31s-.48-12.3-1.07-12.3-1.08,5.51-1.08,12.3S221.79,337.16,222.39,337.16Z" style="fill:#e0e0e0"></path><path d="M207.73,337.16c.59,0,1.07-5.51,1.07-12.31s-.48-12.3-1.07-12.3-1.08,5.51-1.08,12.3S207.13,337.16,207.73,337.16Z" style="fill:#e0e0e0"></path><path d="M423.8,345.38c-.15,0-.26-9.72-.26-21.71s.11-21.72.26-21.72.26,9.72.26,21.72S423.94,345.38,423.8,345.38Z" style="fill:#263238"></path><path d="M544.29,309.26c0,.15-26.83.26-59.94.26s-59.94-.11-59.94-.26,26.83-.26,59.94-.26S544.29,309.12,544.29,309.26Z" style="fill:#263238"></path><path d="M544.29,316.28c0,.14-26.83.26-59.94.26s-59.94-.12-59.94-.26,26.83-.26,59.94-.26S544.29,316.13,544.29,316.28Z" style="fill:#263238"></path><path d="M544.29,323.29c0,.14-26.83.26-59.94.26s-59.94-.12-59.94-.26,26.83-.26,59.94-.26S544.29,323.15,544.29,323.29Z" style="fill:#263238"></path><path d="M544.29,330.3c0,.15-26.83.26-59.94.26s-59.94-.11-59.94-.26,26.83-.26,59.94-.26S544.29,330.16,544.29,330.3Z" style="fill:#263238"></path><path d="M544.29,337.31c0,.15-26.83.26-59.94.26s-59.94-.11-59.94-.26,26.83-.26,59.94-.26S544.29,337.17,544.29,337.31Z" style="fill:#263238"></path><rect x="416.41" y="292.09" width="130.25" height="62.03" style="opacity:0.30000000000000004"></rect><rect x="212.21" y="179.34" width="325.73" height="42.67" style="fill:#FFC727"></rect><rect x="465.98" y="185.36" width="71.95" height="30.3" style="fill:#f5f5f5"></rect><rect x="458.08" y="179.34" width="79.86" height="42.67" style="opacity:0.30000000000000004"></rect><path d="M436.17,212.65s0-.41,0-1.18,0-1.93,0-3.43c0-3,0-7.47-.07-13.24l.12.1-205.42.15h0l.28-.25v17.85l-.28-.25,145.86.11,43.62.07,11.81,0,3.08,0,1.06,0h-1l-3,0-11.76,0-43.55.07-146.06.11h-.27V194.56h.28l205.42.14h.11v.1c0,5.8,0,10.27-.07,13.3,0,1.49,0,2.63,0,3.4S436.17,212.65,436.17,212.65Z" style="fill:#263238"></path><path d="M458.36,221.73c-.16,0-.28-9.57-.28-21.36s.12-21.35.28-21.35.27,9.56.27,21.35S458.51,221.73,458.36,221.73Z" style="fill:#263238"></path><rect x="132.3" y="353.14" width="472.47" height="65.92" style="fill:#FFC727"></rect><rect x="132.3" y="361.38" width="464.76" height="49.19" style="fill:#f5f5f5"></rect><path d="M597.07,372.13s-.41,0-1.2,0l-3.53,0-13.56.07-49.85.11-164.48.1-164.51-.1-49.85-.11-13.56-.07-3.52,0c-.8,0-1.2,0-1.2,0l1.2,0,3.52,0,13.56-.06,49.85-.11,164.51-.1,164.48.1,49.85.11,13.56.06,3.53,0Z" style="fill:#263238"></path><path d="M597.07,385.28s-.41,0-1.2,0l-3.53,0-13.56.07-49.85.11-164.48.1-164.51-.1-49.85-.11-13.56-.07-3.52,0c-.8,0-1.2,0-1.2,0l1.2,0,3.52,0,13.56-.07,49.85-.11,164.51-.1,164.48.1,49.85.11,13.56.07,3.53,0Z" style="fill:#263238"></path><path d="M597.07,398.44l-1.2,0-3.53,0-13.56.06-49.85.11-164.48.1-164.51-.1-49.85-.11-13.56-.06-3.52,0-1.2,0s.4,0,1.2,0l3.52,0,13.56-.07,49.85-.11,164.51-.1,164.48.1,49.85.11,13.56.07,3.53,0C596.66,398.41,597.07,398.44,597.07,398.44Z" style="fill:#263238"></path><rect x="474.43" y="353.14" width="130.34" height="65.92" style="opacity:0.30000000000000004"></rect><path d="M555.43,238.33s.72.21,1.38,1.22a4.34,4.34,0,0,1-.06,4.66l-.11-.36a3.3,3.3,0,0,1,1.85,3.29,4.32,4.32,0,0,1-2.13,3.45,6.05,6.05,0,0,1-3.2.87,12,12,0,0,1-2.21-.18c-.51-.08-.79-.15-.78-.19s1.16.08,3,0a6,6,0,0,0,3-.92,3.9,3.9,0,0,0,1.87-3.06,2.88,2.88,0,0,0-1.5-2.82l-.29-.11.17-.25a4.17,4.17,0,0,0,.21-4.24A6.41,6.41,0,0,0,555.43,238.33Z" style="fill:#455a64"></path></g></svg>
